<?xml version="1.0" encoding="utf-8"?>
<!-- Generator: Adobe Illustrator 24.3.0, SVG Export Plug-In . SVG Version: 6.00 Build 0)  -->
<svg version="1.1" id="Ebene_1" xmlns="http://www.w3.org/2000/svg" xmlns:xlink="http://www.w3.org/1999/xlink" x="0px" y="0px"
	 viewBox="0 0 423.97 442.15" style="enable-background:new 0 0 423.97 442.15;" xml:space="preserve">
<style type="text/css">
	.st0{fill:#8890A4;}
	.st1{fill:#6DC2B7;}
</style>
<g>
	<g>
		
			<rect x="225.49" y="-5.85" transform="matrix(0.7071 -0.7071 0.7071 0.7071 20.568 190.0619)" class="st0" width="28.44" height="152.11"/>
		
			<rect x="181.04" y="36.93" transform="matrix(0.7071 -0.7071 0.7071 0.7071 -22.2188 172.339)" class="st0" width="31.76" height="152.11"/>
		
			<rect x="137.65" y="80.66" transform="matrix(0.7071 -0.7071 0.7071 0.7071 -65.9443 154.2274)" class="st0" width="31.09" height="152.11"/>
	</g>
	<g>
		
			<rect x="76.2" y="271.1" transform="matrix(0.7071 -0.7071 0.7071 0.7071 -157.1571 191.2312)" class="st0" width="152.11" height="28.44"/>
		
			<rect x="118.99" y="312.23" transform="matrix(0.7071 -0.7071 0.7071 0.7071 -174.8799 234.018)" class="st0" width="152.11" height="31.76"/>
		
			<rect x="162.71" y="356.29" transform="matrix(0.7071 -0.7071 0.7071 0.7071 -192.9916 277.7435)" class="st0" width="152.11" height="31.09"/>
	</g>
	<path class="st1" d="M32.65,275.27L32.65,275.27c-29.7-29.7-29.7-77.85,0-107.56l0,0c29.7-29.7,77.85-29.7,107.55,0l0,0
		c29.7,29.7,29.7,77.85,0,107.55l0,0C110.5,304.97,62.35,304.97,32.65,275.27z"/>
	<polygon class="st1" points="303.54,113.93 411.1,221.49 303.54,329.05 	"/>
</g>
</svg>
