<?xml version="1.0" encoding="utf-8"?>
<!-- Generator: Adobe Illustrator 24.3.0, SVG Export Plug-In . SVG Version: 6.00 Build 0)  -->
<svg version="1.1" id="Ebene_1" xmlns="http://www.w3.org/2000/svg" xmlns:xlink="http://www.w3.org/1999/xlink" x="0px" y="0px"
	 viewBox="0 0 1969.85 475.36" style="enable-background:new 0 0 1969.85 475.36;" xml:space="preserve">
<style type="text/css">
	.st0{fill:#8890A4;}
	.st1{fill:#6DC2B7;}
	.st2{fill:none;}
	.st3{font-family:'Syncopate-Regular';}
	.st4{font-size:280px;}
</style>
<g>
	<g>
		
			<rect x="233.86" y="12.22" transform="matrix(0.7071 -0.7071 0.7071 0.7071 10.2405 201.2715)" class="st0" width="28.44" height="152.11"/>
		
			<rect x="189.41" y="55.01" transform="matrix(0.7071 -0.7071 0.7071 0.7071 -32.5463 183.5486)" class="st0" width="31.76" height="152.11"/>
		
			<rect x="146.02" y="98.73" transform="matrix(0.7071 -0.7071 0.7071 0.7071 -76.2718 165.4369)" class="st0" width="31.09" height="152.11"/>
	</g>
	<g>
		
			<rect x="84.57" y="289.17" transform="matrix(0.7071 -0.7071 0.7071 0.7071 -167.4846 202.4408)" class="st0" width="152.11" height="28.44"/>
		
			<rect x="127.36" y="330.3" transform="matrix(0.7071 -0.7071 0.7071 0.7071 -185.2074 245.2276)" class="st0" width="152.11" height="31.76"/>
		
			<rect x="171.08" y="374.36" transform="matrix(0.7071 -0.7071 0.7071 0.7071 -203.3191 288.953)" class="st0" width="152.11" height="31.09"/>
	</g>
	<path class="st1" d="M41.02,293.34L41.02,293.34c-29.7-29.7-29.7-77.85,0-107.56l0,0c29.7-29.7,77.85-29.7,107.55,0l0,0
		c29.7,29.7,29.7,77.85,0,107.55l0,0C118.87,323.04,70.72,323.04,41.02,293.34z"/>
	<polygon class="st1" points="311.91,132 419.47,239.56 311.91,347.12 	"/>
</g>
<rect x="422.55" y="24.44" class="st2" width="2264.62" height="430.24"/>
<text transform="matrix(1 0 0 1 422.5541 212.3182)"><tspan x="0" y="0" class="st1 st3 st4">Zen</tspan><tspan x="0" y="239" class="st1 st3 st4">Zement</tspan></text>
</svg>
